<svg width="39" height="32" viewBox="0 0 39 32" fill="none" xmlns="http://www.w3.org/2000/svg">
<path d="M18.9124 0.0148794C18.9124 0.809601 18.9124 1.60432 18.9124 2.39904C18.91 5.7258 18.9083 9.05256 18.9074 12.3793C18.9107 12.5739 18.8575 12.7656 18.7538 12.933C16.6881 16.3472 14.6267 19.7633 12.5699 23.1814C10.9694 25.8392 9.37186 28.4987 7.77719 31.1599C7.70217 31.3224 7.52867 31.4222 7.34366 31.4094C5.01127 31.4035 2.67887 31.4094 0.346116 31.4118C-0.0671837 31.4118 -0.0733254 31.4011 0.134047 31.0571C2.20681 27.6132 4.28041 24.1697 6.35485 20.7267C7.77587 18.3692 9.19604 16.012 10.6154 13.6548L14.8763 6.58188C15.6053 5.37192 16.3344 4.16196 17.0634 2.952L18.8431 0L18.9124 0.0148794Z" fill="white"/>
<path d="M35.0482 31.4012C36.2075 31.4012 37.3667 31.404 38.5257 31.3995C38.8446 31.3995 38.8524 31.3791 38.6947 31.1101C37.9282 29.805 37.1604 28.5003 36.3911 27.1961C34.5524 24.084 32.7127 20.9726 30.8719 17.8617C29.1493 14.9461 27.4277 12.0298 25.7072 9.1128C25.5466 8.8407 25.5353 8.83931 25.3733 9.1128C24.2144 11.0732 23.0554 13.0335 21.8962 14.9939C21.798 15.1327 21.798 15.3165 21.8962 15.4554C22.5583 16.5708 23.2075 17.6935 23.8678 18.8099C25.1585 20.9916 26.4513 23.1726 27.746 25.353C28.8747 27.2625 29.9988 29.1749 31.1182 31.09C31.2198 31.3053 31.4503 31.4336 31.6916 31.4092C32.8102 31.3916 33.929 31.4019 35.0479 31.4019L35.0482 31.4012Z" fill="white"/>
<path d="M11.6384 31.4126H27.6412L19.6398 17.8164L11.6384 31.4126Z" fill="white"/>
</svg>
