<svg width="158" height="40" viewBox="0 0 158 40" fill="none" xmlns="http://www.w3.org/2000/svg">
<g clip-path="url(#clip0_2558_69219)">
<path d="M68.7546 6.61515C68.2607 6.73624 67.7828 6.91787 67.3303 7.15367C66.9065 7.37354 66.5145 7.65076 66.1576 7.96941C66.1035 8.02039 66.0461 8.07138 65.992 8.12555L65.8422 6.42078H63.2866V21.6395H66.2086V14.0652C66.1959 13.3418 66.3042 12.6249 66.5337 11.9398C66.7217 11.3853 67.0148 10.8882 67.4067 10.4612C67.7764 10.0693 68.2352 9.7634 68.7355 9.5754C69.3027 9.36191 69.8986 9.26313 70.504 9.26631H72.3904V6.42078H70.4148C69.8603 6.4144 69.2932 6.48132 68.7483 6.61834" fill="#1B3359"/>
<path d="M86.3031 8.1606C86.2043 8.06182 86.1023 7.96304 86.0004 7.87063C85.5861 7.49781 85.1273 7.17279 84.6397 6.90831C84.1299 6.63427 83.5914 6.41759 83.0337 6.26464C82.4347 6.10213 81.8197 6.0384 81.2015 6.02565C79.1303 6.00972 77.1355 6.86051 75.7239 8.37728C75.0388 9.11973 74.5067 9.97371 74.1466 10.9201C73.7642 11.9143 73.5762 12.9595 73.5858 14.0269C73.5762 15.0944 73.7674 16.1428 74.1466 17.1401C74.5067 18.0897 75.0388 18.9437 75.7271 19.6861C76.4154 20.419 77.2248 20.9958 78.1393 21.4005C79.0857 21.8179 80.0831 22.0282 81.1027 22.0282H81.1824C81.7942 22.0155 82.4092 21.9549 83.0051 21.7956C84.1012 21.5056 85.1336 20.948 85.9812 20.1928C86.0864 20.0972 86.1915 19.9984 86.2935 19.8964L86.405 21.6363H89.0498V6.41759H86.405L86.3031 8.1606ZM84.7767 10.3115C85.2292 10.7895 85.5797 11.3407 85.8251 11.9557C86.0896 12.6153 86.2202 13.3132 86.2139 14.0333C86.2234 14.7503 86.0928 15.4513 85.8315 16.1204C85.5893 16.7354 85.2388 17.2867 84.7863 17.7647C84.3466 18.2267 83.8304 18.59 83.2504 18.8417C82.6545 19.103 82.0172 19.2209 81.3608 19.2273C80.7363 19.2464 80.0831 19.0998 79.484 18.8353C78.904 18.5804 78.3846 18.2172 77.9481 17.7583C77.4988 17.2835 77.1483 16.7323 76.9093 16.1204C76.648 15.4513 76.5174 14.7503 76.5269 14.0333V13.7688C76.5524 13.1443 76.6799 12.5356 76.9125 11.9525C77.1515 11.3407 77.4988 10.7863 77.9449 10.3115C78.3815 9.84944 78.8977 9.48936 79.4744 9.23763C80.6757 8.71823 82.0491 8.71505 83.2472 9.23763C83.8272 9.49255 84.3466 9.85262 84.7831 10.3147" fill="#1B3359"/>
<path d="M106.349 8.38047C104.947 6.86051 102.959 6.04477 100.91 6.02565C99.7242 6.04158 98.5675 6.30288 97.5287 6.85095C97.0444 7.10587 96.5887 7.42133 96.1809 7.78459C96.098 7.85788 96.0152 7.93436 95.9355 8.01083V0H92.9976V21.6395H95.6423L95.7443 19.9092C95.8463 20.0112 95.9482 20.1067 96.0566 20.2023C96.4708 20.572 96.9297 20.897 97.4236 21.1647C97.9302 21.4387 98.4719 21.6554 99.0328 21.8083C99.6223 21.9677 100.231 22.0505 100.836 22.0505H100.935C102.971 22.0505 104.931 21.1965 106.327 19.6957C107.015 18.9501 107.547 18.0929 107.91 17.1465C108.296 16.1491 108.487 15.1008 108.481 14.0301C108.49 12.9658 108.302 11.9207 107.92 10.9233C107.56 9.98008 107.031 9.12611 106.349 8.38047ZM105.546 14.0237V14.2882C105.524 14.916 105.393 15.5309 105.164 16.1173C104.925 16.7323 104.571 17.2803 104.118 17.7551C103.679 18.214 103.159 18.5772 102.579 18.8322C100.776 19.6192 98.6408 19.1859 97.277 17.7647C96.8277 17.2867 96.4772 16.7323 96.2382 16.1204C95.7252 14.7758 95.7252 13.294 96.2382 11.9493C96.4772 11.3375 96.8309 10.7863 97.2802 10.3147C97.7231 9.85581 98.2393 9.49255 98.8193 9.23445C99.4183 8.97634 100.062 8.84569 100.709 8.84569C101.356 8.84569 101.993 8.97634 102.592 9.23445C103.172 9.49255 103.688 9.85581 104.125 10.3115C104.574 10.7863 104.925 11.3375 105.164 11.9525C105.425 12.6153 105.552 13.3132 105.546 14.0237Z" fill="#1B3359"/>
<path d="M123.167 8.1606C123.069 8.06182 122.967 7.96304 122.865 7.87063C122.45 7.49781 121.992 7.17279 121.504 6.90831C120.994 6.63427 120.456 6.41759 119.898 6.26464C119.299 6.10213 118.681 6.00334 118.066 6.02565C115.995 6.00972 114.003 6.86051 112.588 8.37728C111.903 9.11973 111.371 9.97371 111.011 10.9201C110.629 11.9143 110.441 12.9595 110.447 14.0269C110.441 15.0944 110.629 16.1428 111.008 17.1401C111.368 18.0897 111.9 18.9437 112.588 19.6861C113.277 20.419 114.089 20.9926 115 21.4005C115.944 21.8179 116.944 22.0282 117.964 22.0282H118.044C118.649 22.0378 119.27 21.9549 119.866 21.7956C120.966 21.5056 121.995 20.948 122.842 20.1928C122.948 20.0972 123.053 19.9984 123.155 19.8964L123.266 21.6363H125.911V6.41759H123.266L123.164 8.1606H123.167ZM121.641 10.3115C122.09 10.7863 122.444 11.3407 122.689 11.9525C122.954 12.6153 123.085 13.31 123.078 14.0301C123.085 14.7471 122.957 15.4481 122.696 16.1173C122.454 16.7323 122.103 17.2835 121.651 17.7615C121.211 18.2235 120.695 18.5868 120.115 18.8385C119.519 19.0998 118.882 19.2177 118.225 19.2241C117.578 19.2113 116.947 19.0966 116.348 18.8321C115.768 18.5772 115.249 18.214 114.812 17.7551C114.363 17.2803 114.013 16.7291 113.774 16.1173C113.512 15.4513 113.382 14.7471 113.391 14.0301V14.0206C113.385 13.3068 113.516 12.6121 113.777 11.9493C114.016 11.3375 114.363 10.7831 114.809 10.3083C115.246 9.84625 115.762 9.48618 116.339 9.23444C117.537 8.71505 118.913 8.71505 120.112 9.23444C120.692 9.48936 121.211 9.84944 121.647 10.3115" fill="#1B3359"/>
<path d="M140.05 14.3902C139.753 14.062 139.403 13.7911 139.017 13.5808C138.638 13.3737 138.24 13.2016 137.832 13.0646C137.421 12.9276 136.997 12.8161 136.564 12.7396C136.146 12.6631 135.741 12.5962 135.327 12.5357C134.766 12.4847 134.202 12.4018 133.645 12.2903C133.259 12.217 132.886 12.0927 132.529 11.9143C132.303 11.8028 132.106 11.6339 131.972 11.4459C131.844 11.2483 131.784 11.0189 131.79 10.7671C131.79 10.5154 131.841 10.2701 131.937 10.0374C132.039 9.79527 132.201 9.58177 132.399 9.41608C132.67 9.19621 132.972 9.0337 133.304 8.9381C133.779 8.7979 134.266 8.73098 134.776 8.74691C135.146 8.7501 135.528 8.79153 135.898 8.89668C136.2 8.98271 136.481 9.11973 136.736 9.30455C136.949 9.46069 137.131 9.66781 137.255 9.89724C137.382 10.1299 137.453 10.3943 137.465 10.6556L137.484 11.0922H140.397L140.403 10.6429C140.422 9.34916 139.862 8.13829 138.871 7.31299C138.354 6.88919 137.771 6.56736 137.137 6.36023C136.414 6.12443 135.662 6.01928 134.919 6.02247C133.992 5.99379 133.071 6.12443 132.182 6.3921C131.481 6.60559 130.844 6.95611 130.283 7.43408C129.802 7.8547 129.429 8.39321 129.196 8.99227C128.976 9.56903 128.868 10.1745 128.871 10.7703C128.836 11.5128 129.021 12.2425 129.413 12.8957C129.751 13.4119 130.216 13.8485 130.755 14.1512C131.287 14.4507 131.863 14.6706 132.459 14.7981C133.042 14.9255 133.61 15.0243 134.123 15.0912C134.779 15.1964 135.346 15.3047 135.862 15.4226C136.293 15.515 136.71 15.6616 137.105 15.8528C137.379 15.9834 137.618 16.181 137.793 16.4072C137.95 16.6335 138.032 16.9107 138.02 17.207C138.026 17.7965 137.723 18.3542 137.21 18.676C136.618 19.0839 135.681 19.291 134.419 19.291C134.005 19.2814 133.606 19.2273 133.215 19.0966C132.861 18.9787 132.526 18.8035 132.224 18.5804C131.962 18.386 131.746 18.1471 131.577 17.8666C131.433 17.6277 131.354 17.3568 131.347 17.0764L131.334 16.6367L128.444 16.6144V17.0764C128.454 17.701 128.6 18.3319 128.868 18.8895C129.155 19.4981 129.55 20.0335 130.05 20.4828C130.595 20.9703 131.22 21.3495 131.905 21.6108C132.66 21.8976 133.45 22.0409 134.247 22.0409H134.352C135.27 22.0569 136.184 21.9485 137.077 21.7319C137.835 21.5534 138.546 21.238 139.189 20.7918C139.763 20.3872 140.238 19.8423 140.563 19.205C140.881 18.5422 141.044 17.8029 141.028 17.0828C141.041 16.557 140.951 16.0408 140.766 15.5405C140.601 15.1135 140.365 14.728 140.059 14.387" fill="#1B3359"/>
<path d="M31.5464 0V3.17693H38.152V22.0473H41.3576V3.17693H47.9632V0H31.5464Z" fill="#1B3359"/>
<path d="M59.7755 10.8978C59.5174 10.2541 59.2338 9.78571 59.0872 9.55309C58.6985 8.94129 58.3161 8.52704 58.1504 8.35497C57.4462 7.62208 56.6209 7.04851 55.6905 6.64383C53.7435 5.81534 51.5098 5.81216 49.5596 6.64383C48.6324 7.0517 47.8039 7.62845 47.0997 8.36135C46.3987 9.10061 45.8506 9.95459 45.4746 10.901C45.0794 11.8952 44.8819 12.9403 44.8914 14.011C44.8851 15.0848 45.0794 16.1364 45.4746 17.1306C45.8506 18.0833 46.3955 18.9405 47.1029 19.6798C47.8039 20.4127 48.6324 20.9926 49.566 21.4005C50.5411 21.8179 51.5831 22.025 52.6282 22.025C53.4312 22.025 54.2374 21.9007 55.0181 21.6522C55.7414 21.4132 56.4265 21.0723 57.0543 20.6293C57.6597 20.2023 58.1982 19.6861 58.6507 19.0966C59.0936 18.5231 59.4569 17.8921 59.7309 17.2198L59.9858 16.5952H56.8248L56.6974 16.8406C56.5062 17.2039 56.2704 17.5448 55.99 17.8475C55.7128 18.1471 55.4005 18.4083 55.0563 18.6187C54.7026 18.8353 54.3203 18.9978 53.9251 19.1094C53.5141 19.2241 53.0871 19.2846 52.6569 19.2846C52.0706 19.2846 51.4938 19.1795 50.9458 18.9564C50.3945 18.7397 49.8942 18.4275 49.4609 18.0323C49.002 17.6149 48.6292 17.1242 48.3488 16.5729C48.1162 16.1204 47.9537 15.6425 47.8612 15.1454H60.279C60.3045 14.9892 60.3332 14.7917 60.3523 14.5623C60.3587 14.473 60.381 14.1831 60.3746 13.7975C60.3682 13.4024 60.3332 13.0837 60.3077 12.883C60.3013 12.8256 60.2758 12.6376 60.2344 12.4177C60.1611 12.0386 60.0336 11.5064 59.7883 10.8946H59.7755V10.8978ZM47.9122 12.6217C48.0142 12.1819 48.1672 11.7581 48.3743 11.3535C48.6419 10.8277 48.9925 10.3561 49.4226 9.95778C49.8496 9.56584 50.334 9.25675 50.8693 9.04007C51.4333 8.81383 52.0228 8.69274 52.6314 8.70867H52.6378C53.8264 8.70867 54.9353 9.14522 55.7892 9.96097C56.213 10.3688 56.5636 10.8436 56.8312 11.3726C57.0352 11.7709 57.1881 12.1915 57.2901 12.6249H47.9122V12.6217Z" fill="#1B3359"/>
<path d="M12.6312 0L0 22.0537H5.05059L12.6312 8.93173V0Z" fill="url(#paint0_linear_2558_69219)"/>
<path d="M157.292 10.8978C157.034 10.2541 156.75 9.78571 156.603 9.55309C156.215 8.94129 155.832 8.52704 155.667 8.35497C154.962 7.62208 154.137 7.04851 153.207 6.64383C151.26 5.81534 149.026 5.81216 147.076 6.64383C146.148 7.0517 145.32 7.62845 144.616 8.36135C143.915 9.10061 143.367 9.95459 142.991 10.901C142.596 11.8952 142.398 12.9403 142.408 14.011C142.401 15.0848 142.596 16.1364 142.991 17.1306C143.367 18.0833 143.912 18.9405 144.619 19.6798C145.32 20.4127 146.148 20.9926 147.082 21.4005C148.057 21.8179 149.099 22.025 150.144 22.025C150.947 22.025 151.754 21.9007 152.534 21.6522C153.258 21.4132 153.943 21.0723 154.57 20.6293C155.176 20.2023 155.714 19.6861 156.167 19.0966C156.61 18.5231 156.973 17.8921 157.247 17.2198L157.502 16.5952H154.341L154.213 16.8406C154.022 17.2039 153.787 17.5448 153.506 17.8475C153.229 18.1471 152.917 18.4083 152.572 18.6187C152.219 18.8353 151.836 18.9978 151.441 19.1094C151.03 19.2241 150.603 19.2846 150.173 19.2846C149.587 19.2846 149.01 19.1795 148.462 18.9564C147.911 18.7397 147.41 18.4275 146.977 18.0323C146.518 17.6149 146.145 17.1242 145.865 16.5729C145.632 16.1204 145.47 15.6425 145.377 15.1454H157.795C157.821 14.9892 157.849 14.7917 157.868 14.5623C157.875 14.473 157.897 14.1831 157.891 13.7975C157.884 13.4024 157.849 13.0837 157.824 12.883C157.817 12.8256 157.792 12.6376 157.75 12.4177C157.677 12.0386 157.55 11.5064 157.304 10.8946H157.292V10.8978ZM145.428 12.6217C145.53 12.1819 145.683 11.7581 145.89 11.3535C146.158 10.8277 146.509 10.3561 146.939 9.95778C147.366 9.56584 147.85 9.25675 148.385 9.04007C148.949 8.81383 149.539 8.69274 150.148 8.70867H150.154C151.342 8.70867 152.451 9.14522 153.305 9.96097C153.729 10.3688 154.08 10.8436 154.347 11.3726C154.551 11.7709 154.704 12.1915 154.806 12.6249H145.428V12.6217Z" fill="#1B3359"/>
<path d="M19.3772 22.0537H8.51123L13.9442 12.644L19.3772 22.0537Z" fill="url(#paint1_linear_2558_69219)"/>
<path d="M22.8407 22.0537H27.8913L18.6728 6.13081L16.1045 10.6015L22.8407 22.0537Z" fill="url(#paint2_linear_2558_69219)"/>
<path d="M68.4746 27.6364H77.8333V29.6152H74.2804V39.726H72.0275V29.6152H68.4746V27.6364Z" fill="#993300"/>
<path d="M85.6562 34.8538C85.6562 35.1852 85.618 35.4593 85.5478 35.934H79.3214C79.4871 37.4189 80.6024 38.2984 82.1797 38.2984C83.3141 38.2984 84.4326 37.8778 85.1463 37.1258V39.0855C84.286 39.6527 83.1675 39.9108 82.014 39.9108C79.1558 39.9108 77.2534 38.1518 77.2534 35.4051C77.2534 33.0981 78.7925 30.8452 81.6317 30.8452C84.1044 30.8452 85.6626 32.4926 85.6626 34.857L85.6562 34.8538ZM81.6986 32.4193C80.3794 32.4193 79.4457 33.3339 79.3533 34.618H83.7475C83.8399 33.3721 83.0146 32.4193 81.6954 32.4193H81.6986Z" fill="#993300"/>
<path d="M87.7813 33.627C87.7813 32.8591 87.708 31.9414 87.5806 31.0268H89.6868V33.0057H89.8685C90.2158 31.5781 91.2418 30.8994 92.3221 30.8994C92.7236 30.8994 93.1474 30.9918 93.5138 31.1925V33.2638C93.039 32.9324 92.6152 32.7858 92.0863 32.7858C90.7129 32.7858 89.8876 33.831 89.8876 35.625V37.1099C89.8876 38.0817 89.9258 38.8879 90.0724 39.7291H87.7845V33.6302L87.7813 33.627Z" fill="#993300"/>
<path d="M95.2344 33.627C95.2344 32.8591 95.1612 31.9414 95.0337 31.0268H97.14V33.0057H97.3248C97.6721 31.5781 98.6982 30.8994 99.7784 30.8994C100.18 30.8994 100.604 30.9918 100.97 31.1925V33.2638C100.492 32.9324 100.072 32.7858 99.5426 32.7858C98.1692 32.7858 97.3439 33.831 97.3439 35.625V37.1099C97.3439 38.0817 97.3789 38.8879 97.5255 39.7291H95.2376V33.6302L95.2344 33.627Z" fill="#993300"/>
<path d="M104.612 39.9076C103 39.9076 101.866 38.9198 101.866 37.5273C101.866 36.1348 103.019 35.2362 105.253 34.8538C106.719 34.5798 107.359 34.2866 107.359 33.5346C107.359 32.84 106.773 32.4002 105.766 32.4002C104.632 32.4002 103.494 32.9483 102.506 33.9011V31.9223C103.386 31.2435 104.686 30.842 105.967 30.842C108.111 30.842 109.466 31.9955 109.466 33.8469V37.1067C109.466 38.0212 109.593 39.0472 109.778 39.726H107.617L107.49 38.4259H107.305C106.61 39.4519 105.693 39.9108 104.612 39.9108V39.9076ZM105.619 36.1157C104.466 36.4088 103.972 36.7753 103.972 37.3966C103.972 38.018 104.466 38.4036 105.237 38.4036C106.445 38.4036 107.378 37.505 107.378 36.0392V35.2139C106.977 35.6728 106.426 35.9277 105.619 36.1125V36.1157Z" fill="#993300"/>
<path d="M114.484 28.535C114.484 29.2137 113.917 29.7427 113.219 29.7427C112.521 29.7427 111.954 29.2105 111.954 28.535C111.954 27.8595 112.502 27.3082 113.219 27.3082C113.936 27.3082 114.484 27.8404 114.484 28.535ZM114.264 31.0268V37.1067C114.264 38.0785 114.338 38.958 114.446 39.726H112.158V33.627C112.158 32.8017 112.085 31.7757 111.973 31.0268H114.264Z" fill="#993300"/>
<path d="M118.936 31.0237V32.5086H119.121C119.579 31.5367 120.567 30.842 121.921 30.842C123.773 30.842 125.089 32.123 125.089 34.0476V37.1067C125.089 38.0785 125.162 38.974 125.27 39.726H122.983V34.5415C122.983 33.3339 122.269 32.5819 121.15 32.5819C119.959 32.5819 119.098 33.4804 119.098 34.8347V39.726H116.992V33.627C116.992 32.875 116.9 31.833 116.807 31.0269H118.933L118.936 31.0237Z" fill="#993300"/>
<path d="M131.701 39.726V27.6364H136.242C138.823 27.6364 140.508 29.1755 140.508 31.4475C140.508 33.7194 138.877 35.3318 136.277 35.3318H133.951V39.726H131.698H131.701ZM133.954 29.5228V33.4231H136.226C137.564 33.4231 138.351 32.6169 138.351 31.4984C138.351 30.3258 137.526 29.5196 136.226 29.5196H133.954V29.5228Z" fill="#993300"/>
<path d="M142.359 33.627C142.359 32.8591 142.286 31.9414 142.159 31.0268H144.265V33.0057H144.45C144.797 31.5781 145.823 30.8994 146.903 30.8994C147.305 30.8994 147.729 30.9918 148.095 31.1925V33.2638C147.617 32.9324 147.197 32.7858 146.668 32.7858C145.294 32.7858 144.469 33.831 144.469 35.625V37.1099C144.469 38.0817 144.504 38.8879 144.651 39.7291H142.363V33.6302L142.359 33.627Z" fill="#993300"/>
<path d="M157.875 35.3828C157.875 38.0371 156.097 39.9076 153.423 39.9076C150.75 39.9076 148.953 38.0403 148.953 35.3828C148.953 32.7252 150.731 30.842 153.423 30.842C156.116 30.842 157.875 32.7284 157.875 35.3828ZM151.024 35.3828C151.024 37.0684 151.957 38.1678 153.423 38.1678C154.889 38.1678 155.804 37.0684 155.804 35.3828C155.804 33.6971 154.87 32.5978 153.423 32.5978C151.977 32.5978 151.024 33.6971 151.024 35.3828Z" fill="#993300"/>
</g>
<defs>
<linearGradient id="paint0_linear_2558_69219" x1="1.85772" y1="23.1275" x2="14.5654" y2="1.11527" gradientUnits="userSpaceOnUse">
<stop stop-color="#F69B22"/>
<stop offset="0.18" stop-color="#F6911D"/>
<stop offset="0.48" stop-color="#F67812"/>
<stop offset="0.84" stop-color="#F75200"/>
</linearGradient>
<linearGradient id="paint1_linear_2558_69219" x1="8.51123" y1="17.3472" x2="19.3772" y2="17.3472" gradientUnits="userSpaceOnUse">
<stop stop-color="#07B2ED"/>
<stop offset="0.22" stop-color="#07A9E7"/>
<stop offset="0.59" stop-color="#0790D7"/>
<stop offset="1" stop-color="#086EC1"/>
</linearGradient>
<linearGradient id="paint2_linear_2558_69219" x1="16.7513" y1="7.2397" x2="25.9507" y2="23.1753" gradientUnits="userSpaceOnUse">
<stop stop-color="#9ED84C"/>
<stop offset="0.85" stop-color="#66B600"/>
</linearGradient>
<clipPath id="clip0_2558_69219">
<rect width="157.891" height="40" fill="white"/>
</clipPath>
</defs>
</svg>
